<?xml version="1.0" encoding="iso-8859-1"?>
<!-- Generator: Adobe Illustrator 19.0.0, SVG Export Plug-In . SVG Version: 6.00 Build 0)  -->
<svg version="1.1" id="Capa_1" xmlns="http://www.w3.org/2000/svg" xmlns:xlink="http://www.w3.org/1999/xlink" x="0px" y="0px"
	 viewBox="0 0 512 512" style="enable-background:new 0 0 512 512;" xml:space="preserve">
<path style="fill:#59C9FF;" d="M496.067,62.299l-46.399-46.402c-21.199-21.201-55.688-21.191-76.888,0l-18.16,18.161l-21.209,21.211
	L27.59,361.113c-2.14,2.14-3.59,4.89-4.14,7.87l-1.44,7.75L0.251,494.269c-0.9,4.85,0.65,9.84,4.15,13.331
	c2.83,2.84,6.66,4.4,10.6,4.4c0.91,0,1.82-0.08,2.73-0.25l117.527-21.761l7.75-1.44c2.98-0.55,5.73-2,7.87-4.14l305.821-305.844
	l21.209-21.211l18.16-18.161C517.303,117.956,517.319,83.552,496.067,62.299z"/>
<g>
	<path style="fill:#4BA9EF;" d="M472.885,39.115L4.401,507.599l0,0c2.83,2.84,6.66,4.4,10.6,4.4c0.91,0,1.82-0.08,2.73-0.25
		l117.527-21.761l7.75-1.44c2.98-0.55,5.73-2,7.87-4.14l305.821-305.844l21.209-21.211l18.159-18.161
		c21.235-21.237,21.252-55.64,0-76.893L472.885,39.115z"/>
	
		<rect x="390.664" y="19.152" transform="matrix(-0.7071 0.7071 -0.7071 -0.7071 767.6954 -105.3275)" style="fill:#4BA9EF;" width="29.996" height="174.358"/>
	<path style="fill:#4BA9EF;" d="M161.487,473.798l-10.61,10.61c-2.14,2.14-4.89,3.59-7.87,4.14l-7.75,1.44L22.01,376.734l1.44-7.75
		c0.55-2.98,2-5.73,4.14-7.87l10.61-10.61L161.487,473.798z"/>
</g>
<g>
	
		<rect x="392.889" y="122.16" transform="matrix(0.7071 0.7071 -0.7071 0.7071 224.8238 -268.4572)" style="fill:#3C8ADA;" width="87.159" height="29.996"/>
	<path style="fill:#3C8ADA;" d="M78.636,433.364l56.621,56.625l7.75-1.44c2.98-0.55,5.73-2,7.87-4.14l10.61-10.61l-61.64-61.645
		L78.636,433.364z"/>
</g>
<g>
</g>
<g>
</g>
<g>
</g>
<g>
</g>
<g>
</g>
<g>
</g>
<g>
</g>
<g>
</g>
<g>
</g>
<g>
</g>
<g>
</g>
<g>
</g>
<g>
</g>
<g>
</g>
<g>
</g>
</svg>
